<svg xmlns="http://www.w3.org/2000/svg" width="24" height="24" viewBox="0 0 24 24" fill="none" stroke="hsl(180, 100%, 25%)" stroke-width="2" stroke-linecap="round" stroke-linejoin="round" class="lucide lucide-hand-heart"><path d="M11 14h2a2 2 0 1 0 0-4h-3c-.6 0-1.1.2-1.4.6L3 16"/><path d="m7 20 1.6-1.4c.3-.4.8-.6 1.4-.6h4c1.1 0 2.1-.4 2.8-1.2l4.6-4.4a2 2 0 0 0-2.75-2.91l-4.2 3.9"/><path d="m2 15 .6-.4C2.9 14.2 3.5 14 4.1 14h2"/><path d="M22 9.085A6.002 6.002 0 0 0 17.5 4C15.986 4 14.636 4.843 13.9 6.014M13.9 6.014A3.499 3.499 0 0 1 12.5 8C11.014 8 9.664 7.157 8.95 5.986"/></svg>